<svg width="59.863" height="58.594" viewBox="0 0 59.863 58.594" xmlns="http://www.w3.org/2000/svg"><g id="svgGroup" stroke-linecap="round" fill-rule="evenodd" font-size="9pt" stroke="#000" stroke-width="0.25mm" fill="#000" style="stroke:#000;stroke-width:0.25mm;fill:#000"><path d="M 38.77 58.594 L 59.863 58.594 A 4.438 4.438 0 0 0 59.789 57.743 Q 59.698 57.28 59.497 56.948 A 1.689 1.689 0 0 0 58.301 56.152 Q 57.813 56.055 57.324 56.055 L 54.004 56.055 L 31.641 0 L 28.027 0 L 6.152 56.055 L 0 56.055 L 0 58.594 L 17.383 58.594 A 4.438 4.438 0 0 0 17.308 57.743 Q 17.217 57.28 17.016 56.948 A 1.689 1.689 0 0 0 15.82 56.152 Q 15.332 56.055 14.844 56.055 L 10.059 56.055 L 17.383 37.109 L 37.793 37.109 L 45.117 56.055 L 38.77 56.055 L 38.77 58.594 Z M 27.539 10.645 L 36.719 34.277 L 18.457 34.277 L 27.539 10.645 Z" vector-effect="non-scaling-stroke"/></g></svg>