<!-- Uploaded to: SVG Repo, www.svgrepo.com, Generator: SVG Repo Mixer Tools -->
<svg width="800px" height="800px" viewBox="0 0 16 16" xmlns="http://www.w3.org/2000/svg" fill="none">
    <path
    id="p1"
    stroke={color}
    strokeWidth={1}
    fillRule="evenodd"
    d="M6.834.33a2.25 2.25 0 0 1 2.332 0l5.25 3.182A2.25 2.25 0 0 1 15.5 5.436v5.128a2.25 2.25 0 0 1-1.084 1.924l-5.25 3.182a2.25 2.25 0 0 1-2.332 0l-5.25-3.182A2.25 2.25 0 0 1 .5 10.564V5.436a2.25 2.25 0 0 1 1.084-1.924L6.834.33zm1.555 1.283a.75.75 0 0 0-.778 0l-5.25 3.181A.75.75 0 0 0 2 5.436v5.128a.75.75 0 0 0 .361.642l5.25 3.181a.75.75 0 0 0 .778 0l5.25-3.181a.75.75 0 0 0 .361-.642V5.436a.75.75 0 0 0-.361-.642l-5.25-3.181z"
    clipRule="evenodd"
    />
<text
    strokeWidth="1"
    fill={theme.palette.background.paper}
    x="16"
    y="16"
    dominantBaseline="middle"
    textAnchor="middle"
    transform={"scale(0.5)"}
>
    A
    </text>
</svg>